<svg xmlns="http://www.w3.org/2000/svg" xmlns:xlink="http://www.w3.org/1999/xlink" xmlns:inkscape="http://www.inkscape.org/namespaces/inkscape" version="1.1" width="452.88" height="333.12" viewBox="0 0 452.88 333.12">
<defs>
<clipPath id="clip_1">
<path transform="matrix(.24,0,0,.24,0,0)" d="M0 0H1887.0117V1385.9863H0Z" clip-rule="evenodd"/>
</clipPath>
<clipPath id="clip_2">
<path transform="matrix(.24,0,0,.24,0,0)" d="M78.125 56.25H1809.375V1328.125H78.125Z" clip-rule="evenodd"/>
</clipPath>
</defs>
<g clip-path="url(#clip_1)">
<path transform="matrix(.75,0,0,.75,0,0)" d="M0 0H604V444H0Z" fill="#ffffff"/>
</g>
<g clip-path="url(#clip_2)">
<path transform="matrix(.65767619,0,0,.65767619,18.186934,-179.10678)" stroke-width="1" stroke-linecap="butt" stroke-miterlimit="10" stroke-linejoin="miter" fill="none" stroke="#000000" d="M399 415H419 389 406.76"/>
<path transform="matrix(.65767619,0,0,.65767619,18.186934,-179.10678)" stroke-width="1" stroke-linecap="butt" stroke-miterlimit="10" stroke-linejoin="miter" fill="none" stroke="#000000" d="M400.88 418.5 407.88 415 400.88 411.5"/>
<path transform="matrix(.65767619,0,0,.65767619,18.186934,-179.10678)" d="M297 295H399V535H297Z" fill="#fff2cc"/>
<path transform="matrix(.65767619,0,0,.65767619,18.186934,-179.10678)" stroke-width="1" stroke-linecap="butt" stroke-miterlimit="4" stroke-linejoin="miter" fill="none" stroke="#000000" d="M297 295H399V535H297Z"/>
<path transform="matrix(.65767619,0,0,.65767619,18.186934,-179.10678)" d="M71 350H129.5V480H71Z" fill="#fff2cc"/>
<path transform="matrix(.65767619,0,0,.65767619,18.186934,-179.10678)" stroke-width="1" stroke-linecap="butt" stroke-miterlimit="4" stroke-linejoin="miter" fill="none" stroke="#000000" d="M71 350H129.5V480H71Z"/>
<path transform="matrix(.65767619,0,0,.65767619,18.186934,-179.10678)" d="M7.5 350H62V480H7.5Z" fill="#fff2cc"/>
<path transform="matrix(.65767619,0,0,.65767619,18.186934,-179.10678)" stroke-width="1" stroke-linecap="butt" stroke-miterlimit="4" stroke-linejoin="miter" fill="none" stroke="#000000" d="M7.5 350H62V480H7.5Z"/>
<path transform="matrix(0,.65767619,-.65767619,0,309.20863,79.031108)" d="M-20 405H50L70 425V430H0L-20 410V405Z" fill="#e51400"/>
<path transform="matrix(0,.65767619,-.65767619,0,309.20863,79.031108)" stroke-width="1" stroke-linecap="butt" stroke-miterlimit="10" stroke-linejoin="miter" fill="none" stroke="#b20000" d="M-20 405H50L70 425V430H0L-20 410V405Z"/>
<path transform="matrix(0,.65767619,-.65767619,0,309.20863,79.031108)" d="M-20 405H50L70 425H0L-20 405Z" fill-opacity=".05"/>
<path transform="matrix(0,.65767619,-.65767619,0,309.20863,79.031108)" d="M-20 405 0 425V430L-20 410V405Z" fill-opacity=".1"/>
<path transform="matrix(0,.65767619,-.65767619,0,309.20863,79.031108)" stroke-width="1" stroke-linecap="butt" stroke-miterlimit="10" stroke-linejoin="miter" fill="none" stroke="#b20000" d="M0 430V425L-20 405M0 425H70"/>
<path transform="matrix(0,.65767619,-.65767619,0,315.7854,72.45434)" d="M-10 405H60L80 425V430H10L-10 410V405Z" fill="#009900"/>
<path transform="matrix(0,.65767619,-.65767619,0,315.7854,72.45434)" stroke-width="1" stroke-linecap="butt" stroke-miterlimit="10" stroke-linejoin="miter" fill="none" stroke="#3a5431" d="M-10 405H60L80 425V430H10L-10 410V405Z"/>
<path transform="matrix(0,.65767619,-.65767619,0,315.7854,72.45434)" d="M-10 405H60L80 425H10L-10 405Z" fill-opacity=".05"/>
<path transform="matrix(0,.65767619,-.65767619,0,315.7854,72.45434)" d="M-10 405 10 425V430L-10 410V405Z" fill-opacity=".1"/>
<path transform="matrix(0,.65767619,-.65767619,0,315.7854,72.45434)" stroke-width="1" stroke-linecap="butt" stroke-miterlimit="10" stroke-linejoin="miter" fill="none" stroke="#3a5431" d="M10 430V425L-10 405M10 425H80"/>
<path transform="matrix(0,.65767619,-.65767619,0,322.36216,65.87757)" d="M0 405H70L90 425V430H20L0 410V405Z" fill="#0050ef"/>
<path transform="matrix(0,.65767619,-.65767619,0,322.36216,65.87757)" stroke-width="1" stroke-linecap="butt" stroke-miterlimit="10" stroke-linejoin="miter" fill="none" stroke="#001dbc" d="M0 405H70L90 425V430H20L0 410V405Z"/>
<path transform="matrix(0,.65767619,-.65767619,0,322.36216,65.87757)" d="M0 405H70L90 425H20L0 405Z" fill-opacity=".05"/>
<path transform="matrix(0,.65767619,-.65767619,0,322.36216,65.87757)" d="M0 405 20 425V430L0 410V405Z" fill-opacity=".1"/>
<path transform="matrix(0,.65767619,-.65767619,0,322.36216,65.87757)" stroke-width="1" stroke-linecap="butt" stroke-miterlimit="10" stroke-linejoin="miter" fill="none" stroke="#001dbc" d="M20 430V425L0 405M20 425H90"/>
<text xml:space="preserve" transform="matrix(.65767619 0 0 .65767619 17.858098 -179.43563)" font-size="12" font-family="Liberation Serif"><tspan y="474" x="10 13.996 19.996 25.996 31.996 35.332 38.332 46.996004 52.324 55.660005">Input Data</tspan></text>
<text xml:space="preserve" transform="matrix(.65767619 0 0 .65767619 17.858098 -179.43563)" font-size="8" font-family="Liberation Serif" font-weight="bold"><tspan y="364" x="12.5 16.5 18.5 22.5 24.5 28.5 32.5 36.5 38.5 42.5 44.5 48.5 52.5">3 x 224 x 224</tspan></text>
<path transform="matrix(0,.65767619,-.65767619,0,350.97105,33.98028)" d="M46 402.5H116L136 422.5V427.5H66L46 407.5V402.5Z" fill="#bac8d3"/>
<path transform="matrix(0,.65767619,-.65767619,0,350.97105,33.98028)" stroke-width="1" stroke-linecap="butt" stroke-miterlimit="10" stroke-linejoin="miter" fill="none" stroke="#23445d" d="M46 402.5H116L136 422.5V427.5H66L46 407.5V402.5Z"/>
<path transform="matrix(0,.65767619,-.65767619,0,350.97105,33.98028)" d="M46 402.5H116L136 422.5H66L46 402.5Z" fill-opacity=".05"/>
<path transform="matrix(0,.65767619,-.65767619,0,350.97105,33.98028)" d="M46 402.5 66 422.5V427.5L46 407.5V402.5Z" fill-opacity=".1"/>
<path transform="matrix(0,.65767619,-.65767619,0,350.97105,33.98028)" stroke-width="1" stroke-linecap="butt" stroke-miterlimit="10" stroke-linejoin="miter" fill="none" stroke="#23445d" d="M66 427.5V422.5L46 402.5M66 422.5H136"/>
<path transform="matrix(0,.65767619,-.65767619,0,364.12458,20.826762)" d="M66 402.5H136L156 422.5V427.5H86L66 407.5V402.5Z" fill="#bac8d3"/>
<path transform="matrix(0,.65767619,-.65767619,0,364.12458,20.826762)" stroke-width="1" stroke-linecap="butt" stroke-miterlimit="10" stroke-linejoin="miter" fill="none" stroke="#23445d" d="M66 402.5H136L156 422.5V427.5H86L66 407.5V402.5Z"/>
<path transform="matrix(0,.65767619,-.65767619,0,364.12458,20.826762)" d="M66 402.5H136L156 422.5H86L66 402.5Z" fill-opacity=".05"/>
<path transform="matrix(0,.65767619,-.65767619,0,364.12458,20.826762)" d="M66 402.5 86 422.5V427.5L66 407.5V402.5Z" fill-opacity=".1"/>
<path transform="matrix(0,.65767619,-.65767619,0,364.12458,20.826762)" stroke-width="1" stroke-linecap="butt" stroke-miterlimit="10" stroke-linejoin="miter" fill="none" stroke="#23445d" d="M86 427.5V422.5L66 402.5M86 422.5H156"/>
<text xml:space="preserve" transform="matrix(.65767619 0 0 .65767619 17.858098 -179.43563)" font-size="12" font-family="Liberation Serif"><tspan y="472" x="71.5 79.504 85.504 91.504 97.504 100.504 107.836 113.164 119.164 124.492008">Conv Layer</tspan></text>
<text xml:space="preserve" transform="matrix(.65767619 0 0 .65767619 17.858098 -179.43563)" font-size="8" font-family="Liberation Serif" font-weight="bold"><tspan y="364" x="75.9375 79.9375 83.9375 85.9375 89.9375 91.9375 95.49609 99.49609 103.49609 105.49609 109.49609 111.49609 115.05469 119.05469">64 x 112 x 112</tspan></text>
<path transform="matrix(.65767619,0,0,.65767619,18.186934,-179.10678)" d="M96 458H95V457H96M92 458H91V457H92M88 458H87V457H88"/>
<path transform="matrix(.65767619,0,0,.65767619,18.186934,-179.10678)" stroke-width="1" stroke-linecap="butt" stroke-miterlimit="10" stroke-linejoin="miter" fill="none" stroke="#000000" d="M62 415H68.76"/>
<path transform="matrix(.65767619,0,0,.65767619,18.186934,-179.10678)" stroke-width="1" stroke-linecap="butt" stroke-miterlimit="10" stroke-linejoin="miter" fill="none" stroke="#000000" d="M62.88 418.5 69.88 415 62.88 411.5"/>
<path transform="matrix(.65767619,0,0,.65767619,18.186934,-179.10678)" d="M139.25 365H197.75V465H139.25Z" fill="#fff2cc"/>
<path transform="matrix(.65767619,0,0,.65767619,18.186934,-179.10678)" stroke-width="1" stroke-linecap="butt" stroke-miterlimit="4" stroke-linejoin="miter" fill="none" stroke="#000000" d="M139.25 365H197.75V465H139.25Z"/>
<path transform="matrix(0,.65767619,-.65767619,0,394.5421,-12.87914)" d="M127.25 400H172.25L192.25 420V425H147.25L127.25 405V400Z" fill="#bac8d3"/>
<path transform="matrix(0,.65767619,-.65767619,0,394.5421,-12.87914)" stroke-width="1" stroke-linecap="butt" stroke-miterlimit="10" stroke-linejoin="miter" fill="none" stroke="#23445d" d="M127.25 400H172.25L192.25 420V425H147.25L127.25 405V400Z"/>
<path transform="matrix(0,.65767619,-.65767619,0,394.5421,-12.87914)" d="M127.25 400H172.25L192.25 420H147.25L127.25 400Z" fill-opacity=".05"/>
<path transform="matrix(0,.65767619,-.65767619,0,394.5421,-12.87914)" d="M127.25 400 147.25 420V425L127.25 405V400Z" fill-opacity=".1"/>
<path transform="matrix(0,.65767619,-.65767619,0,394.5421,-12.87914)" stroke-width="1" stroke-linecap="butt" stroke-miterlimit="10" stroke-linejoin="miter" fill="none" stroke="#23445d" d="M147.25 425V420L127.25 400M147.25 420H192.25"/>
<path transform="matrix(0,.65767619,-.65767619,0,408.11003,-25.618327)" d="M147.88 400.63H191.63L211.63 420.63V425.63H167.88L147.88 405.63V400.63Z" fill="#bac8d3"/>
<path transform="matrix(0,.65767619,-.65767619,0,408.11003,-25.618327)" stroke-width="1" stroke-linecap="butt" stroke-miterlimit="10" stroke-linejoin="miter" fill="none" stroke="#23445d" d="M147.88 400.63H191.63L211.63 420.63V425.63H167.88L147.88 405.63V400.63Z"/>
<path transform="matrix(0,.65767619,-.65767619,0,408.11003,-25.618327)" d="M147.88 400.63H191.63L211.63 420.63H167.88L147.88 400.63Z" fill-opacity=".05"/>
<path transform="matrix(0,.65767619,-.65767619,0,408.11003,-25.618327)" d="M147.88 400.63 167.88 420.63V425.63L147.88 405.63V400.63Z" fill-opacity=".1"/>
<path transform="matrix(0,.65767619,-.65767619,0,408.11003,-25.618327)" stroke-width="1" stroke-linecap="butt" stroke-miterlimit="10" stroke-linejoin="miter" fill="none" stroke="#23445d" d="M167.88 425.63V420.63L147.88 400.63M167.88 420.63H211.63"/>
<text xml:space="preserve" transform="matrix(.65767619 0 0 .65767619 17.858098 -179.43563)" font-size="12" font-family="Liberation Serif"><tspan y="457" x="145.48438 156.15238 161.48038 167.48038 170.48038 177.15238 183.15238 189.15238">Max Pool</tspan></text>
<text xml:space="preserve" transform="matrix(.65767619 0 0 .65767619 17.858098 -179.43563)" font-size="8" font-family="Liberation Serif" font-weight="bold"><tspan y="375" x="148.5 152.5 156.5 158.5 162.5 164.5 168.5 172.5 174.5 178.5 180.5 184.5">64 x 56 x 56</tspan></text>
<path transform="matrix(.65767619,0,0,.65767619,18.186934,-179.10678)" d="M164.75 443H163.75V442H164.75M160.75 443H159.75V442H160.75M156.75 443H155.75V442H156.75"/>
<path transform="matrix(.65767619,0,0,.65767619,18.186934,-179.10678)" stroke-width="1" stroke-linecap="butt" stroke-miterlimit="10" stroke-linejoin="miter" fill="none" stroke="#000000" d="M129.5 415H137.01"/>
<path transform="matrix(.65767619,0,0,.65767619,18.186934,-179.10678)" stroke-width="1" stroke-linecap="butt" stroke-miterlimit="10" stroke-linejoin="miter" fill="none" stroke="#000000" d="M131.13 418.5 138.13 415 131.13 411.5"/>
<path transform="matrix(.65767619,0,0,.65767619,18.186934,-179.10678)" d="M207.75 365H287.25V465H207.75Z" fill="#fff2cc"/>
<path transform="matrix(.65767619,0,0,.65767619,18.186934,-179.10678)" stroke-width="1" stroke-linecap="butt" stroke-miterlimit="4" stroke-linejoin="miter" fill="none" stroke="#000000" d="M207.75 365H287.25V465H207.75Z"/>
<path transform="matrix(0,.65767619,-.65767619,0,439.59294,-57.929956)" d="M195.75 400H240.75L260.75 420V425H215.75L195.75 405V400Z" fill="#bac8d3"/>
<path transform="matrix(0,.65767619,-.65767619,0,439.59294,-57.929956)" stroke-width="1" stroke-linecap="butt" stroke-miterlimit="10" stroke-linejoin="miter" fill="none" stroke="#23445d" d="M195.75 400H240.75L260.75 420V425H215.75L195.75 405V400Z"/>
<path transform="matrix(0,.65767619,-.65767619,0,439.59294,-57.929956)" d="M195.75 400H240.75L260.75 420H215.75L195.75 400Z" fill-opacity=".05"/>
<path transform="matrix(0,.65767619,-.65767619,0,439.59294,-57.929956)" d="M195.75 400 215.75 420V425L195.75 405V400Z" fill-opacity=".1"/>
<path transform="matrix(0,.65767619,-.65767619,0,439.59294,-57.929956)" stroke-width="1" stroke-linecap="butt" stroke-miterlimit="10" stroke-linejoin="miter" fill="none" stroke="#23445d" d="M215.75 425V420L195.75 400M215.75 420H260.75"/>
<path transform="matrix(0,.65767619,-.65767619,0,463.84803,-82.18506)" d="M233.25 400H277L297 420V425H253.25L233.25 405V400Z" fill="#bac8d3"/>
<path transform="matrix(0,.65767619,-.65767619,0,463.84803,-82.18506)" stroke-width="1" stroke-linecap="butt" stroke-miterlimit="10" stroke-linejoin="miter" fill="none" stroke="#23445d" d="M233.25 400H277L297 420V425H253.25L233.25 405V400Z"/>
<path transform="matrix(0,.65767619,-.65767619,0,463.84803,-82.18506)" d="M233.25 400H277L297 420H253.25L233.25 400Z" fill-opacity=".05"/>
<path transform="matrix(0,.65767619,-.65767619,0,463.84803,-82.18506)" d="M233.25 400 253.25 420V425L233.25 405V400Z" fill-opacity=".1"/>
<path transform="matrix(0,.65767619,-.65767619,0,463.84803,-82.18506)" stroke-width="1" stroke-linecap="butt" stroke-miterlimit="10" stroke-linejoin="miter" fill="none" stroke="#23445d" d="M253.25 425V420L233.25 400M253.25 420H297"/>
<text xml:space="preserve" transform="matrix(.65767619 0 0 .65767619 17.858098 -179.43563)" font-size="12" font-family="Liberation Serif"><tspan y="459" x="210.15625 218.16025 223.48825 228.15625 231.49225 237.49225 243.49225 248.82025 252.15625 255.15625 263.16026 266.49626 272.49626 277.82426">Residual Block</tspan></text>
<text xml:space="preserve" transform="matrix(.65767619 0 0 .65767619 17.858098 -179.43563)" font-size="8" font-family="Liberation Serif" font-weight="bold"><tspan y="374" x="225.5 229.5 233.5 237.5 239.5 243.5 245.5 249.5 253.5 255.5 259.5 261.5 265.5">256 x 56 x 56</tspan></text>
<path transform="matrix(.65767619,0,0,.65767619,18.186934,-179.10678)" d="M251.25893 442.4999 250.25908 442.51777 250.24123 441.51795 251.24108 441.5001M247.25957 442.57133 246.25972 442.58918 246.24187 441.58937 247.24172 441.5715M243.26021 442.64274 242.26036 442.66059 242.24251 441.66078 243.24236 441.6429M239.26084 442.71418 238.261 442.73204 238.24315 441.7322 239.24298 441.71437M235.26148 442.78559 234.26165 442.80345 234.24379 441.80363 235.24362 441.78578M231.26212 442.857 230.26227 442.87486 230.24442 441.87504 231.24427 441.85719M227.26276 442.9284 226.26291 442.94627 226.24506 441.94645 227.2449 441.9286M223.26338 442.99983 223.25893 442.9999 223.24108 442.0001 223.24553 442"/>
<path transform="matrix(.65767619,0,0,.65767619,18.186934,-179.10678)" stroke-width="1" stroke-linecap="butt" stroke-miterlimit="10" stroke-linejoin="miter" fill="none" stroke="#000000" d="M197.75 415H205.51"/>
<path transform="matrix(.65767619,0,0,.65767619,18.186934,-179.10678)" stroke-width="1" stroke-linecap="butt" stroke-miterlimit="10" stroke-linejoin="miter" fill="none" stroke="#000000" d="M199.63 418.5 206.63 415 199.63 411.5"/>
<path transform="matrix(.65767619,0,0,.65767619,18.186934,-179.10678)" d="M309 305H388.5V405H309Z" fill="#fff2cc"/>
<path transform="matrix(.65767619,0,0,.65767619,18.186934,-179.10678)" stroke-width="1" stroke-linecap="butt" stroke-miterlimit="4" stroke-linejoin="miter" fill="none" stroke="#000000" d="M309 305H388.5V405H309Z"/>
<path transform="matrix(0,.65767619,-.65767619,0,466.72206,-163.98023)" d="M297 340H342L362 360V365H317L297 345V340Z" fill="#bac8d3"/>
<path transform="matrix(0,.65767619,-.65767619,0,466.72206,-163.98023)" stroke-width="1" stroke-linecap="butt" stroke-miterlimit="10" stroke-linejoin="miter" fill="none" stroke="#23445d" d="M297 340H342L362 360V365H317L297 345V340Z"/>
<path transform="matrix(0,.65767619,-.65767619,0,466.72206,-163.98023)" d="M297 340H342L362 360H317L297 340Z" fill-opacity=".05"/>
<path transform="matrix(0,.65767619,-.65767619,0,466.72206,-163.98023)" d="M297 340 317 360V365L297 345V340Z" fill-opacity=".1"/>
<path transform="matrix(0,.65767619,-.65767619,0,466.72206,-163.98023)" stroke-width="1" stroke-linecap="butt" stroke-miterlimit="10" stroke-linejoin="miter" fill="none" stroke="#23445d" d="M317 365V360L297 340M317 360H362"/>
<path transform="matrix(0,.65767619,-.65767619,0,482.1775,-172.85886)" d="M330.25 345H345.75L365.75 365V370H350.25L330.25 350V345Z" fill="#bac8d3"/>
<path transform="matrix(0,.65767619,-.65767619,0,482.1775,-172.85886)" stroke-width="1" stroke-linecap="butt" stroke-miterlimit="10" stroke-linejoin="miter" fill="none" stroke="#23445d" d="M330.25 345H345.75L365.75 365V370H350.25L330.25 350V345Z"/>
<path transform="matrix(0,.65767619,-.65767619,0,482.1775,-172.85886)" d="M330.25 345H345.75L365.75 365H350.25L330.25 345Z" fill-opacity=".05"/>
<path transform="matrix(0,.65767619,-.65767619,0,482.1775,-172.85886)" d="M330.25 345 350.25 365V370L330.25 350V345Z" fill-opacity=".1"/>
<path transform="matrix(0,.65767619,-.65767619,0,482.1775,-172.85886)" stroke-width="1" stroke-linecap="butt" stroke-miterlimit="10" stroke-linejoin="miter" fill="none" stroke="#23445d" d="M350.25 370V365L330.25 345M350.25 365H365.75"/>
<path transform="matrix(0,.65767619,-.65767619,0,490.97718,-188.23532)" d="M334.5 340H378.25L398.25 360V365H354.5L334.5 345V340Z" fill="#bac8d3"/>
<path transform="matrix(0,.65767619,-.65767619,0,490.97718,-188.23532)" stroke-width="1" stroke-linecap="butt" stroke-miterlimit="10" stroke-linejoin="miter" fill="none" stroke="#23445d" d="M334.5 340H378.25L398.25 360V365H354.5L334.5 345V340Z"/>
<path transform="matrix(0,.65767619,-.65767619,0,490.97718,-188.23532)" d="M334.5 340H378.25L398.25 360H354.5L334.5 340Z" fill-opacity=".05"/>
<path transform="matrix(0,.65767619,-.65767619,0,490.97718,-188.23532)" d="M334.5 340 354.5 360V365L334.5 345V340Z" fill-opacity=".1"/>
<path transform="matrix(0,.65767619,-.65767619,0,490.97718,-188.23532)" stroke-width="1" stroke-linecap="butt" stroke-miterlimit="10" stroke-linejoin="miter" fill="none" stroke="#23445d" d="M354.5 365V360L334.5 340M354.5 360H398.25"/>
<text xml:space="preserve" transform="matrix(.65767619 0 0 .65767619 17.858098 -179.43563)" font-size="12" font-family="Liberation Serif"><tspan y="399" x="316.82814 327.49613 332.82414 337.49214 343.49214 346.49214 354.49613 358.49214 363.82014 369.82014 375.14814">Mask Branch</tspan></text>
<text xml:space="preserve" transform="matrix(.65767619 0 0 .65767619 17.858098 -179.43563)" font-size="8" font-family="Liberation Serif" font-weight="bold"><tspan y="314" x="326.5 330.5 334.5 338.5 340.5 344.5 346.5 350.5 354.5 356.5 360.5 362.5 366.5">256 x 56 x 56</tspan></text>
<path transform="matrix(.65767619,0,0,.65767619,18.186934,-179.10678)" d="M352.50895 382.4999 351.5091 382.51777 351.4912 381.51795 352.49107 381.5001M348.50959 382.57133 347.50975 382.58918 347.49186 381.58937 348.4917 381.5715M344.51023 382.64274 343.51039 382.66059 343.4925 381.66078 344.49235 381.6429M340.51087 382.71418 339.51103 382.73204 339.49314 381.7322 340.49299 381.71437M336.5115 382.78559 335.51167 382.80345 335.49378 381.80363 336.49363 381.78578M332.51213 382.857 331.5123 382.87486 331.49443 381.87504 332.49424 381.85719M328.51277 382.9284 327.5129 382.94627 327.49504 381.94645 328.49488 381.9286M324.5134 382.99983 324.50895 382.9999 324.49107 382.0001 324.4955 382"/>
<path transform="matrix(.65767619,0,0,.65767619,18.186934,-179.10678)" d="M309 415H388.5V515H309Z" fill="#fff2cc"/>
<path transform="matrix(.65767619,0,0,.65767619,18.186934,-179.10678)" stroke-width="1" stroke-linecap="butt" stroke-miterlimit="4" stroke-linejoin="miter" fill="none" stroke="#000000" d="M309 415H388.5V515H309Z"/>
<path transform="matrix(0,.65767619,-.65767619,0,539.0664,-91.635868)" d="M297 450H342L362 470V475H317L297 455V450Z" fill="#bac8d3"/>
<path transform="matrix(0,.65767619,-.65767619,0,539.0664,-91.635868)" stroke-width="1" stroke-linecap="butt" stroke-miterlimit="10" stroke-linejoin="miter" fill="none" stroke="#23445d" d="M297 450H342L362 470V475H317L297 455V450Z"/>
<path transform="matrix(0,.65767619,-.65767619,0,539.0664,-91.635868)" d="M297 450H342L362 470H317L297 450Z" fill-opacity=".05"/>
<path transform="matrix(0,.65767619,-.65767619,0,539.0664,-91.635868)" d="M297 450 317 470V475L297 455V450Z" fill-opacity=".1"/>
<path transform="matrix(0,.65767619,-.65767619,0,539.0664,-91.635868)" stroke-width="1" stroke-linecap="butt" stroke-miterlimit="10" stroke-linejoin="miter" fill="none" stroke="#23445d" d="M317 475V470L297 450M317 470H362"/>
<path transform="matrix(0,.65767619,-.65767619,0,563.32156,-115.89096)" d="M334.5 450H378.25L398.25 470V475H354.5L334.5 455V450Z" fill="#bac8d3"/>
<path transform="matrix(0,.65767619,-.65767619,0,563.32156,-115.89096)" stroke-width="1" stroke-linecap="butt" stroke-miterlimit="10" stroke-linejoin="miter" fill="none" stroke="#23445d" d="M334.5 450H378.25L398.25 470V475H354.5L334.5 455V450Z"/>
<path transform="matrix(0,.65767619,-.65767619,0,563.32156,-115.89096)" d="M334.5 450H378.25L398.25 470H354.5L334.5 450Z" fill-opacity=".05"/>
<path transform="matrix(0,.65767619,-.65767619,0,563.32156,-115.89096)" d="M334.5 450 354.5 470V475L334.5 455V450Z" fill-opacity=".1"/>
<path transform="matrix(0,.65767619,-.65767619,0,563.32156,-115.89096)" stroke-width="1" stroke-linecap="butt" stroke-miterlimit="10" stroke-linejoin="miter" fill="none" stroke="#23445d" d="M354.5 475V470L334.5 450M354.5 470H398.25"/>
<text xml:space="preserve" transform="matrix(.65767619 0 0 .65767619 17.858098 -179.43563)" font-size="12" font-family="Liberation Serif"><tspan y="509" x="315.71876 322.62696 326.62297 332.62297 338.62297 344.62297 347.62297 355.62696 359.62297 364.95097 370.95097 376.27897">Trunk Branch</tspan></text>
<text xml:space="preserve" transform="matrix(.65767619 0 0 .65767619 17.858098 -179.43563)" font-size="8" font-family="Liberation Serif" font-weight="bold"><tspan y="424" x="326.5 330.5 334.5 338.5 340.5 344.5 346.5 350.5 354.5 356.5 360.5 362.5 366.5">256 x 56 x 56</tspan></text>
<path transform="matrix(.65767619,0,0,.65767619,18.186934,-179.10678)" d="M352.50895 492.4999 351.5091 492.51777 351.4912 491.51795 352.49107 491.5001M348.50959 492.57133 347.50975 492.58918 347.49186 491.58937 348.4917 491.5715M344.51023 492.64274 343.51039 492.66059 343.4925 491.66078 344.49235 491.6429M340.51087 492.71418 339.51103 492.73204 339.49314 491.7322 340.49299 491.71437M336.5115 492.78559 335.51167 492.80345 335.49378 491.80363 336.49363 491.78578M332.51213 492.857 331.5123 492.87486 331.49443 491.87504 332.49424 491.85719M328.51277 492.9284 327.5129 492.94627 327.49504 491.94645 328.49488 491.9286M324.5134 492.99983 324.50895 492.9999 324.49107 492.0001 324.4955 492"/>
<text xml:space="preserve" transform="matrix(.65767619 0 0 .65767619 17.858098 -179.43563)" font-size="12" font-family="Liberation Serif"><tspan y="529" x="305.15626 313.82026 317.15626 320.49226 325.82026 331.82026 335.15626 338.49226 344.49226 350.49226 353.49226 364.16026 370.16026 376.16026 382.16026 385.49626">Attention Module</tspan></text>
<path transform="matrix(.65767619,0,0,.65767619,18.186934,-179.10678)" stroke-width="1" stroke-linecap="butt" stroke-miterlimit="10" stroke-linejoin="miter" fill="none" stroke="#000000" d="M287.25 415H294.76"/>
<path transform="matrix(.65767619,0,0,.65767619,18.186934,-179.10678)" stroke-width="1" stroke-linecap="butt" stroke-miterlimit="10" stroke-linejoin="miter" fill="none" stroke="#000000" d="M288.88 418.5 295.88 415 288.88 411.5"/>
<path transform="matrix(.65767619,0,0,.65767619,18.186934,-179.10678)" d="M409 376.25H488.5V453.75H409Z" fill="#fff2cc"/>
<path transform="matrix(.65767619,0,0,.65767619,18.186934,-179.10678)" stroke-width="1" stroke-linecap="butt" stroke-miterlimit="4" stroke-linejoin="miter" fill="none" stroke="#000000" d="M409 376.25H488.5V453.75H409Z"/>
<path transform="matrix(0,.65767619,-.65767619,0,571.1282,-191.10938)" d="M407 398.75H432L452 418.75V423.75H427L407 403.75V398.75Z" fill="#bac8d3"/>
<path transform="matrix(0,.65767619,-.65767619,0,571.1282,-191.10938)" stroke-width="1" stroke-linecap="butt" stroke-miterlimit="10" stroke-linejoin="miter" fill="none" stroke="#23445d" d="M407 398.75H432L452 418.75V423.75H427L407 403.75V398.75Z"/>
<path transform="matrix(0,.65767619,-.65767619,0,571.1282,-191.10938)" d="M407 398.75H432L452 418.75H427L407 398.75Z" fill-opacity=".05"/>
<path transform="matrix(0,.65767619,-.65767619,0,571.1282,-191.10938)" d="M407 398.75 427 418.75V423.75L407 403.75V398.75Z" fill-opacity=".1"/>
<path transform="matrix(0,.65767619,-.65767619,0,571.1282,-191.10938)" stroke-width="1" stroke-linecap="butt" stroke-miterlimit="10" stroke-linejoin="miter" fill="none" stroke="#23445d" d="M427 423.75V418.75L407 398.75M427 418.75H452"/>
<path transform="matrix(0,.65767619,-.65767619,0,596.2053,-214.54239)" d="M445.75 400H467L487 420V425H465.75L445.75 405V400Z" fill="#bac8d3"/>
<path transform="matrix(0,.65767619,-.65767619,0,596.2053,-214.54239)" stroke-width="1" stroke-linecap="butt" stroke-miterlimit="10" stroke-linejoin="miter" fill="none" stroke="#23445d" d="M445.75 400H467L487 420V425H465.75L445.75 405V400Z"/>
<path transform="matrix(0,.65767619,-.65767619,0,596.2053,-214.54239)" d="M445.75 400H467L487 420H465.75L445.75 400Z" fill-opacity=".05"/>
<path transform="matrix(0,.65767619,-.65767619,0,596.2053,-214.54239)" d="M445.75 400 465.75 420V425L445.75 405V400Z" fill-opacity=".1"/>
<path transform="matrix(0,.65767619,-.65767619,0,596.2053,-214.54239)" stroke-width="1" stroke-linecap="butt" stroke-miterlimit="10" stroke-linejoin="miter" fill="none" stroke="#23445d" d="M465.75 425V420L445.75 400M465.75 420H487"/>
<text xml:space="preserve" transform="matrix(.65767619 0 0 .65767619 17.858098 -179.43563)" font-size="12" font-family="Liberation Serif"><tspan y="448" x="412.15626 420.16026 425.48826 430.15626 433.49226 439.49226 445.49226 450.82026 454.15626 457.15626 465.16026 468.49626 474.49626 479.82426">Residual Block</tspan></text>
<text xml:space="preserve" transform="matrix(.65767619 0 0 .65767619 17.858098 -179.43563)" font-size="8" font-family="Liberation Serif" font-weight="bold"><tspan y="385" x="426.5 430.5 434.5 438.5 440.5 444.5 446.5 450.5 454.5 456.5 460.5 462.5 466.5">512 x 28 x 28</tspan></text>
<path transform="matrix(.65767619,0,0,.65767619,18.186934,-179.10678)" d="M452.50895 431.2499 451.5091 431.26777 451.4912 430.26795 452.49107 430.2501M448.50959 431.32133 447.50975 431.33918 447.49186 430.33937 448.4917 430.3215M444.51023 431.39274 443.51039 431.41059 443.4925 430.41078 444.49235 430.3929M440.51087 431.46418 439.51103 431.48204 439.49314 430.4822 440.49299 430.46437M436.5115 431.53559 435.51167 431.55345 435.49378 430.55363 436.49363 430.53578M432.51213 431.607 431.5123 431.62486 431.49443 430.62504 432.49424 430.60719M428.51277 431.6784 427.5129 431.69627 427.49504 430.69645 428.49488 430.6786M424.5134 431.74983 424.50895 431.7499 424.49107 430.7501 424.4955 430.75"/>
<path transform="matrix(.65767619,0,0,.65767619,18.186934,-179.10678)" stroke-width="1" stroke-linecap="butt" stroke-miterlimit="10" stroke-linejoin="miter" fill="none" stroke="#000000" d="M602 415H622V555H276V520H10V650H52.3L52.31 648"/>
<path transform="matrix(.65767619,0,0,.65767619,18.186934,-179.10678)" d="M52.29 653.25 48.82 646.24 52.31 648 55.82 646.27 52.29 653.25Z"/>
<path transform="matrix(.65767619,0,0,.65767619,18.186934,-179.10678)" stroke-width="1" stroke-linecap="butt" stroke-miterlimit="10" stroke-linejoin="miter" fill="none" stroke="#000000" d="M52.29 653.25 48.82 646.24 52.31 648 55.82 646.27 52.29 653.25Z"/>
<path transform="matrix(.65767619,0,0,.65767619,18.186934,-179.10678)" d="M500 312.5H602V517.5H500Z" fill="#fff2cc"/>
<path transform="matrix(.65767619,0,0,.65767619,18.186934,-179.10678)" stroke-width="1" stroke-linecap="butt" stroke-miterlimit="4" stroke-linejoin="miter" fill="none" stroke="#000000" d="M500 312.5H602V517.5H500Z"/>
<path transform="matrix(.65767619,0,0,.65767619,18.186934,-179.10678)" d="M512 321.25H591.5V406.25H512Z" fill="#fff2cc"/>
<path transform="matrix(.65767619,0,0,.65767619,18.186934,-179.10678)" stroke-width="1" stroke-linecap="butt" stroke-miterlimit="4" stroke-linejoin="miter" fill="none" stroke="#000000" d="M512 321.25H591.5V406.25H512Z"/>
<path transform="matrix(0,.65767619,-.65767619,0,607.6292,-290.08967)" d="M510 351.25H535L555 371.25V376.25H530L510 356.25V351.25Z" fill="#bac8d3"/>
<path transform="matrix(0,.65767619,-.65767619,0,607.6292,-290.08967)" stroke-width="1" stroke-linecap="butt" stroke-miterlimit="10" stroke-linejoin="miter" fill="none" stroke="#23445d" d="M510 351.25H535L555 371.25V376.25H530L510 356.25V351.25Z"/>
<path transform="matrix(0,.65767619,-.65767619,0,607.6292,-290.08967)" d="M510 351.25H535L555 371.25H530L510 351.25Z" fill-opacity=".05"/>
<path transform="matrix(0,.65767619,-.65767619,0,607.6292,-290.08967)" d="M510 351.25 530 371.25V376.25L510 356.25V351.25Z" fill-opacity=".1"/>
<path transform="matrix(0,.65767619,-.65767619,0,607.6292,-290.08967)" stroke-width="1" stroke-linecap="butt" stroke-miterlimit="10" stroke-linejoin="miter" fill="none" stroke="#23445d" d="M530 376.25V371.25L510 351.25M530 371.25H555"/>
<path transform="matrix(0,.65767619,-.65767619,0,623.78829,-298.27769)" d="M533.32 357.31H548.7L568.7 377.31V382.31H553.32L533.32 362.31V357.31Z" fill="#bac8d3"/>
<path transform="matrix(0,.65767619,-.65767619,0,623.78829,-298.27769)" stroke-width="1" stroke-linecap="butt" stroke-miterlimit="10" stroke-linejoin="miter" fill="none" stroke="#23445d" d="M533.32 357.31H548.7L568.7 377.31V382.31H553.32L533.32 362.31V357.31Z"/>
<path transform="matrix(0,.65767619,-.65767619,0,623.78829,-298.27769)" d="M533.32 357.31H548.7L568.7 377.31H553.32L533.32 357.31Z" fill-opacity=".05"/>
<path transform="matrix(0,.65767619,-.65767619,0,623.78829,-298.27769)" d="M533.32 357.31 553.32 377.31V382.31L533.32 362.31V357.31Z" fill-opacity=".1"/>
<path transform="matrix(0,.65767619,-.65767619,0,623.78829,-298.27769)" stroke-width="1" stroke-linecap="butt" stroke-miterlimit="10" stroke-linejoin="miter" fill="none" stroke="#23445d" d="M553.32 382.31V377.31L533.32 357.31M553.32 377.31H568.7"/>
<path transform="matrix(0,.65767619,-.65767619,0,632.70639,-313.52265)" d="M548.75 352.5H570L590 372.5V377.5H568.75L548.75 357.5V352.5Z" fill="#bac8d3"/>
<path transform="matrix(0,.65767619,-.65767619,0,632.70639,-313.52265)" stroke-width="1" stroke-linecap="butt" stroke-miterlimit="10" stroke-linejoin="miter" fill="none" stroke="#23445d" d="M548.75 352.5H570L590 372.5V377.5H568.75L548.75 357.5V352.5Z"/>
<path transform="matrix(0,.65767619,-.65767619,0,632.70639,-313.52265)" d="M548.75 352.5H570L590 372.5H568.75L548.75 352.5Z" fill-opacity=".05"/>
<path transform="matrix(0,.65767619,-.65767619,0,632.70639,-313.52265)" d="M548.75 352.5 568.75 372.5V377.5L548.75 357.5V352.5Z" fill-opacity=".1"/>
<path transform="matrix(0,.65767619,-.65767619,0,632.70639,-313.52265)" stroke-width="1" stroke-linecap="butt" stroke-miterlimit="10" stroke-linejoin="miter" fill="none" stroke="#23445d" d="M568.75 377.5V372.5L548.75 352.5M568.75 372.5H590"/>
<text xml:space="preserve" transform="matrix(.65767619 0 0 .65767619 17.858098 -179.43563)" font-size="12" font-family="Liberation Serif"><tspan y="400" x="519.8281 530.49618 535.82418 540.4922 546.4922 549.4922 557.4962 561.4922 566.8202 572.8202 578.1482">Mask Branch</tspan></text>
<text xml:space="preserve" transform="matrix(.65767619 0 0 .65767619 17.858098 -179.43563)" font-size="8" font-family="Liberation Serif" font-weight="bold"><tspan y="336" x="529.5 533.5 537.5 541.5 543.5 547.5 549.5 553.5 557.5 559.5 563.5 565.5 569.5">512 x 28 x 28</tspan></text>
<path transform="matrix(.65767619,0,0,.65767619,18.186934,-179.10678)" d="M555.5089 383.7499 554.5091 383.76777 554.4913 382.76795 555.4911 382.7501M551.5095 383.82133 550.5097 383.83918 550.4919 382.83937 551.4917 382.8215M547.5102 383.89274 546.5104 383.91059 546.49258 382.91078 547.4924 382.8929M543.5108 383.96418 542.511 383.98204 542.49319 382.9822 543.493 382.96437M539.5115 384.03559 538.5116 384.05345 538.4938 383.05363 539.49368 383.03578M535.5121 384.107 534.51229 384.12486 534.49447 383.12504 535.49429 383.10719M531.51278 384.1784 530.5129 384.19627 530.49508 383.19645 531.49496 383.1786M527.51339 384.24983 527.5089 384.2499 527.4911 383.2501 527.49557 383.25"/>
<path transform="matrix(.65767619,0,0,.65767619,18.186934,-179.10678)" d="M512 412.5H591.5V497.5H512Z" fill="#fff2cc"/>
<path transform="matrix(.65767619,0,0,.65767619,18.186934,-179.10678)" stroke-width="1" stroke-linecap="butt" stroke-miterlimit="4" stroke-linejoin="miter" fill="none" stroke="#000000" d="M512 412.5H591.5V497.5H512Z"/>
<path transform="matrix(0,.65767619,-.65767619,0,667.64218,-230.07669)" d="M510 442.5H535L555 462.5V467.5H530L510 447.5V442.5Z" fill="#bac8d3"/>
<path transform="matrix(0,.65767619,-.65767619,0,667.64218,-230.07669)" stroke-width="1" stroke-linecap="butt" stroke-miterlimit="10" stroke-linejoin="miter" fill="none" stroke="#23445d" d="M510 442.5H535L555 462.5V467.5H530L510 447.5V442.5Z"/>
<path transform="matrix(0,.65767619,-.65767619,0,667.64218,-230.07669)" d="M510 442.5H535L555 462.5H530L510 442.5Z" fill-opacity=".05"/>
<path transform="matrix(0,.65767619,-.65767619,0,667.64218,-230.07669)" d="M510 442.5 530 462.5V467.5L510 447.5V442.5Z" fill-opacity=".1"/>
<path transform="matrix(0,.65767619,-.65767619,0,667.64218,-230.07669)" stroke-width="1" stroke-linecap="butt" stroke-miterlimit="10" stroke-linejoin="miter" fill="none" stroke="#23445d" d="M530 467.5V462.5L510 442.5M530 462.5H555"/>
<path transform="matrix(0,.65767619,-.65767619,0,689.4309,-256.79808)" d="M543.75 438.75H575L595 458.75V463.75H563.75L543.75 443.75V438.75Z" fill="#bac8d3"/>
<path transform="matrix(0,.65767619,-.65767619,0,689.4309,-256.79808)" stroke-width="1" stroke-linecap="butt" stroke-miterlimit="10" stroke-linejoin="miter" fill="none" stroke="#23445d" d="M543.75 438.75H575L595 458.75V463.75H563.75L543.75 443.75V438.75Z"/>
<path transform="matrix(0,.65767619,-.65767619,0,689.4309,-256.79808)" d="M543.75 438.75H575L595 458.75H563.75L543.75 438.75Z" fill-opacity=".05"/>
<path transform="matrix(0,.65767619,-.65767619,0,689.4309,-256.79808)" d="M543.75 438.75 563.75 458.75V463.75L543.75 443.75V438.75Z" fill-opacity=".1"/>
<path transform="matrix(0,.65767619,-.65767619,0,689.4309,-256.79808)" stroke-width="1" stroke-linecap="butt" stroke-miterlimit="10" stroke-linejoin="miter" fill="none" stroke="#23445d" d="M563.75 463.75V458.75L543.75 438.75M563.75 458.75H595"/>
<text xml:space="preserve" transform="matrix(.65767619 0 0 .65767619 17.858098 -179.43563)" font-size="12" font-family="Liberation Serif"><tspan y="492" x="518.71878 525.62698 529.6229 535.6229 541.6229 547.6229 550.6229 558.62698 562.6229 567.9509 573.9509 579.27896">Trunk Branch</tspan></text>
<text xml:space="preserve" transform="matrix(.65767619 0 0 .65767619 17.858098 -179.43563)" font-size="8" font-family="Liberation Serif" font-weight="bold"><tspan y="422" x="529.5 533.5 537.5 541.5 543.5 547.5 549.5 553.5 557.5 559.5 563.5 565.5 569.5">256 x 28 x 28</tspan></text>
<path transform="matrix(.65767619,0,0,.65767619,18.186934,-179.10678)" d="M555.5089 474.9999 554.5091 475.01777 554.4913 474.01795 555.4911 474.0001M551.5095 475.07133 550.5097 475.08918 550.4919 474.08937 551.4917 474.0715M547.5102 475.14274 546.5104 475.16059 546.49258 474.16078 547.4924 474.1429M543.5108 475.21418 542.511 475.23204 542.49319 474.2322 543.493 474.21437M539.5115 475.28559 538.5116 475.30345 538.4938 474.30363 539.49368 474.28578M535.5121 475.357 534.51229 475.37486 534.49447 474.37504 535.49429 474.35719M531.51278 475.4284 530.5129 475.44627 530.49508 474.44645 531.49496 474.4286M527.51339 475.49983 527.5089 475.4999 527.4911 474.5001 527.49557 474.5"/>
<text xml:space="preserve" transform="matrix(.65767619 0 0 .65767619 17.858098 -179.43563)" font-size="12" font-family="Liberation Serif"><tspan y="512" x="508.15626 516.82028 520.15628 523.49227 528.82028 534.82028 538.15628 541.49227 547.49227 553.49227 556.49227 567.1603 573.1603 579.1603 585.1603 588.4963">Attention Module</tspan></text>
<path transform="matrix(.65767619,0,0,.65767619,18.186934,-179.10678)" stroke-width="1" stroke-linecap="butt" stroke-miterlimit="10" stroke-linejoin="miter" fill="none" stroke="#000000" d="M488.5 415H497.76"/>
<path transform="matrix(.65767619,0,0,.65767619,18.186934,-179.10678)" stroke-width="1" stroke-linecap="butt" stroke-miterlimit="10" stroke-linejoin="miter" fill="none" stroke="#000000" d="M491.88 418.5 498.88 415 491.88 411.5"/>
<path transform="matrix(.65767619,0,0,.65767619,18.186934,-179.10678)" d="M52.28 615.62H131.78V693.12H52.28Z" fill="#fff2cc"/>
<path transform="matrix(.65767619,0,0,.65767619,18.186934,-179.10678)" stroke-width="1" stroke-linecap="butt" stroke-miterlimit="4" stroke-linejoin="miter" fill="none" stroke="#000000" d="M52.28 615.62H131.78V693.12H52.28Z"/>
<path transform="matrix(0,.65767619,-.65767619,0,495.59403,202.56897)" d="M52.78 640.62H72.78L92.78 660.62V665.62H72.78L52.78 645.62V640.62Z" fill="#bac8d3"/>
<path transform="matrix(0,.65767619,-.65767619,0,495.59403,202.56897)" stroke-width="1" stroke-linecap="butt" stroke-miterlimit="10" stroke-linejoin="miter" fill="none" stroke="#23445d" d="M52.78 640.62H72.78L92.78 660.62V665.62H72.78L52.78 645.62V640.62Z"/>
<path transform="matrix(0,.65767619,-.65767619,0,495.59403,202.56897)" d="M52.78 640.62H72.78L92.78 660.62H72.78L52.78 640.62Z" fill-opacity=".05"/>
<path transform="matrix(0,.65767619,-.65767619,0,495.59403,202.56897)" d="M52.78 640.62 72.78 660.62V665.62L52.78 645.62V640.62Z" fill-opacity=".1"/>
<path transform="matrix(0,.65767619,-.65767619,0,495.59403,202.56897)" stroke-width="1" stroke-linecap="butt" stroke-miterlimit="10" stroke-linejoin="miter" fill="none" stroke="#23445d" d="M72.78 665.62V660.62L52.78 640.62M72.78 660.62H92.78"/>
<path transform="matrix(0,.65767619,-.65767619,0,521.0856,179.55033)" d="M92.16 642.5H107.16L127.16 662.5V667.5H112.16L92.16 647.5V642.5Z" fill="#bac8d3"/>
<path transform="matrix(0,.65767619,-.65767619,0,521.0856,179.55033)" stroke-width="1" stroke-linecap="butt" stroke-miterlimit="10" stroke-linejoin="miter" fill="none" stroke="#23445d" d="M92.16 642.5H107.16L127.16 662.5V667.5H112.16L92.16 647.5V642.5Z"/>
<path transform="matrix(0,.65767619,-.65767619,0,521.0856,179.55033)" d="M92.16 642.5H107.16L127.16 662.5H112.16L92.16 642.5Z" fill-opacity=".05"/>
<path transform="matrix(0,.65767619,-.65767619,0,521.0856,179.55033)" d="M92.16 642.5 112.16 662.5V667.5L92.16 647.5V642.5Z" fill-opacity=".1"/>
<path transform="matrix(0,.65767619,-.65767619,0,521.0856,179.55033)" stroke-width="1" stroke-linecap="butt" stroke-miterlimit="10" stroke-linejoin="miter" fill="none" stroke="#23445d" d="M112.16 667.5V662.5L92.16 642.5M112.16 662.5H127.16"/>
<text xml:space="preserve" transform="matrix(.65767619 0 0 .65767619 17.858098 -179.43563)" font-size="12" font-family="Liberation Serif"><tspan y="687" x="55.15625 63.16025 68.48825 73.15625 76.49225 82.49225 88.49225 93.82025 97.15625 100.15625 108.16025 111.49625 117.49625 122.82425">Residual Block</tspan></text>
<text xml:space="preserve" transform="matrix(.65767619 0 0 .65767619 17.858098 -179.43563)" font-size="8" font-family="Liberation Serif" font-weight="bold"><tspan y="625" x="68.5 72.5 76.5 80.5 84.5 86.5 90.5 92.5 96.5 100.5 102.5 106.5 108.5 112.5">1024 x 14 x 14</tspan></text>
<path transform="matrix(.65767619,0,0,.65767619,18.186934,-179.10678)" d="M95.788928 670.61996 94.789089 670.6378 94.77123 669.63796 95.77107 669.62008M91.789569 670.69137 90.78972 670.7092 90.771869 669.70938 91.77171 669.69149M87.7902 670.76278 86.79036 670.78067 86.77251 669.78079 87.77235 669.7629M83.79084 670.83419 82.791 670.85208 82.77315 669.8522 83.77299 669.8343M79.79147 670.9056 78.79163 670.92349 78.77378 669.9236 79.77362 669.9057M75.792118 670.977 74.79227 670.9949 74.774417 669.995 75.77426 669.9771M71.79275 671.04849 70.79291 671.0663 70.775058 670.0664 71.774898 670.0486M67.79339 671.1199 67.788928 671.11996 67.77107 670.12008 67.775539 670.12"/>
<path transform="matrix(.65767619,0,0,.65767619,18.186934,-179.10678)" d="M143.28 560H245.28V750H143.28Z" fill="#fff2cc"/>
<path transform="matrix(.65767619,0,0,.65767619,18.186934,-179.10678)" stroke-width="1" stroke-linecap="butt" stroke-miterlimit="4" stroke-linejoin="miter" fill="none" stroke="#000000" d="M143.28 560H245.28V750H143.28Z"/>
<path transform="matrix(.65767619,0,0,.65767619,18.186934,-179.10678)" d="M154.78 573.13H234.28V643.13H154.78Z" fill="#fff2cc"/>
<path transform="matrix(.65767619,0,0,.65767619,18.186934,-179.10678)" stroke-width="1" stroke-linecap="butt" stroke-miterlimit="4" stroke-linejoin="miter" fill="none" stroke="#000000" d="M154.78 573.13H234.28V643.13H154.78Z"/>
<path transform="matrix(0,.65767619,-.65767619,0,531.1152,103.26647)" d="M156.78 592.13H173.78L193.78 612.13V617.13H176.78L156.78 597.13V592.13Z" fill="#bac8d3"/>
<path transform="matrix(0,.65767619,-.65767619,0,531.1152,103.26647)" stroke-width="1" stroke-linecap="butt" stroke-miterlimit="10" stroke-linejoin="miter" fill="none" stroke="#23445d" d="M156.78 592.13H173.78L193.78 612.13V617.13H176.78L156.78 597.13V592.13Z"/>
<path transform="matrix(0,.65767619,-.65767619,0,531.1152,103.26647)" d="M156.78 592.13H173.78L193.78 612.13H176.78L156.78 592.13Z" fill-opacity=".05"/>
<path transform="matrix(0,.65767619,-.65767619,0,531.1152,103.26647)" d="M156.78 592.13 176.78 612.13V617.13L156.78 597.13V592.13Z" fill-opacity=".1"/>
<path transform="matrix(0,.65767619,-.65767619,0,531.1152,103.26647)" stroke-width="1" stroke-linecap="butt" stroke-miterlimit="10" stroke-linejoin="miter" fill="none" stroke="#23445d" d="M176.78 617.13V612.13L156.78 592.13M176.78 612.13H193.78"/>
<path transform="matrix(0,.65767619,-.65767619,0,546.89938,95.37436)" d="M179.9 598.13H186.65L206.65 618.13V623.13H199.9L179.9 603.13V598.13Z" fill="#bac8d3"/>
<path transform="matrix(0,.65767619,-.65767619,0,546.89938,95.37436)" stroke-width="1" stroke-linecap="butt" stroke-miterlimit="10" stroke-linejoin="miter" fill="none" stroke="#23445d" d="M179.9 598.13H186.65L206.65 618.13V623.13H199.9L179.9 603.13V598.13Z"/>
<path transform="matrix(0,.65767619,-.65767619,0,546.89938,95.37436)" d="M179.9 598.13H186.65L206.65 618.13H199.9L179.9 598.13Z" fill-opacity=".05"/>
<path transform="matrix(0,.65767619,-.65767619,0,546.89938,95.37436)" d="M179.9 598.13 199.9 618.13V623.13L179.9 603.13V598.13Z" fill-opacity=".1"/>
<path transform="matrix(0,.65767619,-.65767619,0,546.89938,95.37436)" stroke-width="1" stroke-linecap="butt" stroke-miterlimit="10" stroke-linejoin="miter" fill="none" stroke="#23445d" d="M199.9 623.13V618.13L179.9 598.13M199.9 618.13H206.65"/>
<path transform="matrix(0,.65767619,-.65767619,0,554.96249,78.603618)" d="M193.66 591.51H210.66L230.66 611.51V616.51H213.66L193.66 596.51V591.51Z" fill="#bac8d3"/>
<path transform="matrix(0,.65767619,-.65767619,0,554.96249,78.603618)" stroke-width="1" stroke-linecap="butt" stroke-miterlimit="10" stroke-linejoin="miter" fill="none" stroke="#23445d" d="M193.66 591.51H210.66L230.66 611.51V616.51H213.66L193.66 596.51V591.51Z"/>
<path transform="matrix(0,.65767619,-.65767619,0,554.96249,78.603618)" d="M193.66 591.51H210.66L230.66 611.51H213.66L193.66 591.51Z" fill-opacity=".05"/>
<path transform="matrix(0,.65767619,-.65767619,0,554.96249,78.603618)" d="M193.66 591.51 213.66 611.51V616.51L193.66 596.51V591.51Z" fill-opacity=".1"/>
<path transform="matrix(0,.65767619,-.65767619,0,554.96249,78.603618)" stroke-width="1" stroke-linecap="butt" stroke-miterlimit="10" stroke-linejoin="miter" fill="none" stroke="#23445d" d="M213.66 616.51V611.51L193.66 591.51M213.66 611.51H230.66"/>
<text xml:space="preserve" transform="matrix(.65767619 0 0 .65767619 17.858098 -179.43563)" font-size="12" font-family="Liberation Serif"><tspan y="637" x="161.82813 172.49613 177.82413 182.49213 188.49213 191.49213 199.49613 203.49213 208.82013 214.82013 220.14813">Mask Branch</tspan></text>
<text xml:space="preserve" transform="matrix(.65767619 0 0 .65767619 17.858098 -179.43563)" font-size="8" font-family="Liberation Serif" font-weight="bold"><tspan y="582" x="171.5 175.5 179.5 183.5 187.5 189.5 193.5 195.5 199.5 203.5 205.5 209.5 211.5 215.5">1024 x 14 x 14</tspan></text>
<path transform="matrix(.65767619,0,0,.65767619,18.186934,-179.10678)" d="M198.28893 620.62997 197.28908 620.6478 197.27123 619.64797 198.27108 619.63009M194.28957 620.70138 193.28972 620.71926 193.27187 619.71939 194.27172 619.7015M190.2902 620.77279 189.29036 620.79067 189.2725 619.7908 190.27236 619.7729M186.29084 620.8442 185.291 620.86209 185.27315 619.8622 186.27298 619.8443M182.29148 620.9156 181.29164 620.9335 181.27379 619.9336 182.27362 619.9157M178.29212 620.987 177.29227 621.0049 177.27442 620.005 178.27426 619.9871M174.29276 621.0585 173.29291 621.0763 173.27506 620.0764 174.2749 620.0586M170.29338 621.1299 170.28893 621.12997 170.27108 620.13009 170.27553 620.13"/>
<path transform="matrix(.65767619,0,0,.65767619,18.186934,-179.10678)" d="M155.28 650H234.78V730H155.28Z" fill="#fff2cc"/>
<path transform="matrix(.65767619,0,0,.65767619,18.186934,-179.10678)" stroke-width="1" stroke-linecap="butt" stroke-miterlimit="4" stroke-linejoin="miter" fill="none" stroke="#000000" d="M155.28 650H234.78V730H155.28Z"/>
<path transform="matrix(0,.65767619,-.65767619,0,586.6032,158.09694)" d="M154.28 676H177.28L197.28 696V701H174.28L154.28 681V676Z" fill="#bac8d3"/>
<path transform="matrix(0,.65767619,-.65767619,0,586.6032,158.09694)" stroke-width="1" stroke-linecap="butt" stroke-miterlimit="10" stroke-linejoin="miter" fill="none" stroke="#23445d" d="M154.28 676H177.28L197.28 696V701H174.28L154.28 681V676Z"/>
<path transform="matrix(0,.65767619,-.65767619,0,586.6032,158.09694)" d="M154.28 676H177.28L197.28 696H174.28L154.28 676Z" fill-opacity=".05"/>
<path transform="matrix(0,.65767619,-.65767619,0,586.6032,158.09694)" d="M154.28 676 174.28 696V701L154.28 681V676Z" fill-opacity=".1"/>
<path transform="matrix(0,.65767619,-.65767619,0,586.6032,158.09694)" stroke-width="1" stroke-linecap="butt" stroke-miterlimit="10" stroke-linejoin="miter" fill="none" stroke="#23445d" d="M174.28 701V696L154.28 676M174.28 696H197.28"/>
<path transform="matrix(0,.65767619,-.65767619,0,611.6805,134.66393)" d="M193.03 677.25H212.28L232.28 697.25V702.25H213.03L193.03 682.25V677.25Z" fill="#bac8d3"/>
<path transform="matrix(0,.65767619,-.65767619,0,611.6805,134.66393)" stroke-width="1" stroke-linecap="butt" stroke-miterlimit="10" stroke-linejoin="miter" fill="none" stroke="#23445d" d="M193.03 677.25H212.28L232.28 697.25V702.25H213.03L193.03 682.25V677.25Z"/>
<path transform="matrix(0,.65767619,-.65767619,0,611.6805,134.66393)" d="M193.03 677.25H212.28L232.28 697.25H213.03L193.03 677.25Z" fill-opacity=".05"/>
<path transform="matrix(0,.65767619,-.65767619,0,611.6805,134.66393)" d="M193.03 677.25 213.03 697.25V702.25L193.03 682.25V677.25Z" fill-opacity=".1"/>
<path transform="matrix(0,.65767619,-.65767619,0,611.6805,134.66393)" stroke-width="1" stroke-linecap="butt" stroke-miterlimit="10" stroke-linejoin="miter" fill="none" stroke="#23445d" d="M213.03 702.25V697.25L193.03 677.25M213.03 697.25H232.28"/>
<text xml:space="preserve" transform="matrix(.65767619 0 0 .65767619 17.858098 -179.43563)" font-size="12" font-family="Liberation Serif"><tspan y="724" x="161.71875 168.62696 172.62296 178.62296 184.62296 190.62296 193.62296 201.62696 205.62296 210.95096 216.95096 222.27896">Trunk Branch</tspan></text>
<text xml:space="preserve" transform="matrix(.65767619 0 0 .65767619 17.858098 -179.43563)" font-size="8" font-family="Liberation Serif" font-weight="bold"><tspan y="663" x="171.5 175.5 179.5 183.5 187.5 189.5 193.5 195.5 199.5 203.5 205.5 209.5 211.5 215.5">1024 x 14 x 14</tspan></text>
<path transform="matrix(.65767619,0,0,.65767619,18.186934,-179.10678)" d="M198.78893 707.49996 197.78908 707.5178 197.77123 706.51797 198.77108 706.50009M194.78957 707.57138 193.78972 707.58926 193.77187 706.58938 194.77172 706.5715M190.7902 707.64279 189.79036 707.66067 189.7725 706.66079 190.77236 706.6429M186.79084 707.7142 185.791 707.73208 185.77315 706.7322 186.77298 706.7143M182.79148 707.7856 181.79164 707.80349 181.77379 706.8036 182.77362 706.7857M178.79212 707.857 177.79227 707.8749 177.77442 706.875 178.77426 706.8571M174.79276 707.92849 173.79291 707.9463 173.77506 706.9464 174.7749 706.9286M170.79338 707.9999 170.78893 707.99996 170.77108 707.00009 170.77553 707"/>
<text xml:space="preserve" transform="matrix(.65767619 0 0 .65767619 17.858098 -179.43563)" font-size="12" font-family="Liberation Serif"><tspan y="744" x="151.15625 159.82025 163.15625 166.49225 171.82025 177.82025 181.15625 184.49225 190.49225 196.49225 199.49225 210.16025 216.16025 222.16025 228.16025 231.49625">Attention Module</tspan></text>
<path transform="matrix(.65767619,0,0,.65767619,18.186934,-179.10678)" stroke-width="1" stroke-linecap="butt" stroke-miterlimit="10" stroke-linejoin="miter" fill="none" stroke="#000000" d="M131.78 654.37 141.05 654.88"/>
<path transform="matrix(.65767619,0,0,.65767619,18.186934,-179.10678)" stroke-width="1" stroke-linecap="butt" stroke-miterlimit="10" stroke-linejoin="miter" fill="none" stroke="#000000" d="M134.98 658.05 142.16 654.94 135.37 651.06"/>
<path transform="matrix(.65767619,0,0,.65767619,18.186934,-179.10678)" d="M258.53 621.25H338.03V688.75H258.53Z" fill="#fff2cc"/>
<path transform="matrix(.65767619,0,0,.65767619,18.186934,-179.10678)" stroke-width="1" stroke-linecap="butt" stroke-miterlimit="4" stroke-linejoin="miter" fill="none" stroke="#000000" d="M258.53 621.25H338.03V688.75H258.53Z"/>
<path transform="matrix(0,.65767619,-.65767619,0,633.1799,64.99629)" d="M267.84 640.63H276.09L296.09 660.63V665.63H287.84L267.84 645.63V640.63Z" fill="#bac8d3"/>
<path transform="matrix(0,.65767619,-.65767619,0,633.1799,64.99629)" stroke-width="1" stroke-linecap="butt" stroke-miterlimit="10" stroke-linejoin="miter" fill="none" stroke="#23445d" d="M267.84 640.63H276.09L296.09 660.63V665.63H287.84L267.84 645.63V640.63Z"/>
<path transform="matrix(0,.65767619,-.65767619,0,633.1799,64.99629)" d="M267.84 640.63H276.09L296.09 660.63H287.84L267.84 640.63Z" fill-opacity=".05"/>
<path transform="matrix(0,.65767619,-.65767619,0,633.1799,64.99629)" d="M267.84 640.63 287.84 660.63V665.63L267.84 645.63V640.63Z" fill-opacity=".1"/>
<path transform="matrix(0,.65767619,-.65767619,0,633.1799,64.99629)" stroke-width="1" stroke-linecap="butt" stroke-miterlimit="10" stroke-linejoin="miter" fill="none" stroke="#23445d" d="M287.84 665.63V660.63L267.84 640.63M287.84 660.63H296.09"/>
<text xml:space="preserve" transform="matrix(.65767619 0 0 .65767619 17.858098 -179.43563)" font-size="12" font-family="Liberation Serif"><tspan y="683" x="261.15626 269.16026 274.48826 279.15626 282.49226 288.49226 294.49226 299.82026 303.15626 306.15626 314.16026 317.49626 323.49626 328.82426">Residual Block</tspan></text>
<text xml:space="preserve" transform="matrix(.65767619 0 0 .65767619 17.858098 -179.43563)" font-size="8" font-family="Liberation Serif" font-weight="bold"><tspan y="633" x="278.5 282.5 286.5 290.5 294.5 296.5 300.5 302.5 306.5 308.5 312.5 314.5">2048 x 7 x 7</tspan></text>
<path transform="matrix(.65767619,0,0,.65767619,18.186934,-179.10678)" d="M304.96894 664.74996 303.9691 664.7678 303.9512 663.76797 304.95106 663.75009M300.96958 664.82138 299.96974 664.83926 299.95185 663.83938 300.9517 663.8215M296.9702 664.89279 295.97038 664.91067 295.95249 663.91079 296.95234 663.8929M292.97087 664.9642 291.971 664.98208 291.95314 663.9822 292.95298 663.9643M288.9715 665.0356 287.97166 665.05349 287.95378 664.0536 288.9536 664.0357M284.9721 665.107 283.9723 665.1249 283.9544 664.125 284.95423 664.1071M280.97276 665.17849 279.97294 665.1963 279.95506 664.1964 280.95487 664.1786M276.9734 665.2499 276.96894 665.24996 276.95106 664.25009 276.9555 664.25"/>
<path transform="matrix(0,.65767619,-.65767619,0,654.6333,43.5429)" d="M300.47 640.63H308.72L328.72 660.63V665.63H320.47L300.47 645.63V640.63Z" fill="#bac8d3"/>
<path transform="matrix(0,.65767619,-.65767619,0,654.6333,43.5429)" stroke-width="1" stroke-linecap="butt" stroke-miterlimit="10" stroke-linejoin="miter" fill="none" stroke="#23445d" d="M300.47 640.63H308.72L328.72 660.63V665.63H320.47L300.47 645.63V640.63Z"/>
<path transform="matrix(0,.65767619,-.65767619,0,654.6333,43.5429)" d="M300.47 640.63H308.72L328.72 660.63H320.47L300.47 640.63Z" fill-opacity=".05"/>
<path transform="matrix(0,.65767619,-.65767619,0,654.6333,43.5429)" d="M300.47 640.63 320.47 660.63V665.63L300.47 645.63V640.63Z" fill-opacity=".1"/>
<path transform="matrix(0,.65767619,-.65767619,0,654.6333,43.5429)" stroke-width="1" stroke-linecap="butt" stroke-miterlimit="10" stroke-linejoin="miter" fill="none" stroke="#23445d" d="M320.47 665.63V660.63L300.47 640.63M320.47 660.63H328.72"/>
<path transform="matrix(.65767619,0,0,.65767619,18.186934,-179.10678)" stroke-width="1" stroke-linecap="butt" stroke-miterlimit="10" stroke-linejoin="miter" fill="none" stroke="#000000" d="M245.28 655H256.29"/>
<path transform="matrix(.65767619,0,0,.65767619,18.186934,-179.10678)" stroke-width="1" stroke-linecap="butt" stroke-miterlimit="10" stroke-linejoin="miter" fill="none" stroke="#000000" d="M250.41 658.5 257.41 655 250.41 651.5"/>
<path transform="matrix(.65767619,0,0,.65767619,18.186934,-179.10678)" d="M348.28 621.25H427.78V688.75H348.28Z" fill="#fff2cc"/>
<path transform="matrix(.65767619,0,0,.65767619,18.186934,-179.10678)" stroke-width="1" stroke-linecap="butt" stroke-miterlimit="4" stroke-linejoin="miter" fill="none" stroke="#000000" d="M348.28 621.25H427.78V688.75H348.28Z"/>
<path transform="matrix(0,.65767619,-.65767619,0,692.20639,5.9698598)" d="M357.59 640.63H365.84L385.84 660.63V665.63H377.59L357.59 645.63V640.63Z" fill="#bac8d3"/>
<path transform="matrix(0,.65767619,-.65767619,0,692.20639,5.9698598)" stroke-width="1" stroke-linecap="butt" stroke-miterlimit="10" stroke-linejoin="miter" fill="none" stroke="#23445d" d="M357.59 640.63H365.84L385.84 660.63V665.63H377.59L357.59 645.63V640.63Z"/>
<path transform="matrix(0,.65767619,-.65767619,0,692.20639,5.9698598)" d="M357.59 640.63H365.84L385.84 660.63H377.59L357.59 640.63Z" fill-opacity=".05"/>
<path transform="matrix(0,.65767619,-.65767619,0,692.20639,5.9698598)" d="M357.59 640.63 377.59 660.63V665.63L357.59 645.63V640.63Z" fill-opacity=".1"/>
<path transform="matrix(0,.65767619,-.65767619,0,692.20639,5.9698598)" stroke-width="1" stroke-linecap="butt" stroke-miterlimit="10" stroke-linejoin="miter" fill="none" stroke="#23445d" d="M377.59 665.63V660.63L357.59 640.63M377.59 660.63H385.84"/>
<text xml:space="preserve" transform="matrix(.65767619 0 0 .65767619 17.858098 -179.43563)" font-size="12" font-family="Liberation Serif"><tspan y="683" x="351.15626 359.16026 364.48826 369.15626 372.49226 378.49226 384.49226 389.82026 393.15626 396.15626 404.16026 407.49626 413.49626 418.82426">Residual Block</tspan></text>
<text xml:space="preserve" transform="matrix(.65767619 0 0 .65767619 17.858098 -179.43563)" font-size="8" font-family="Liberation Serif" font-weight="bold"><tspan y="633" x="368.5 372.5 376.5 380.5 384.5 386.5 390.5 392.5 396.5 398.5 402.5 404.5">2048 x 7 x 7</tspan></text>
<path transform="matrix(.65767619,0,0,.65767619,18.186934,-179.10678)" d="M394.71894 664.74996 393.7191 664.7678 393.7012 663.76797 394.70106 663.75009M390.71958 664.82138 389.71974 664.83926 389.70185 663.83938 390.7017 663.8215M386.7202 664.89279 385.72038 664.91067 385.70249 663.91079 386.70234 663.8929M382.72087 664.9642 381.721 664.98208 381.70314 663.9822 382.70298 663.9643M378.7215 665.0356 377.72166 665.05349 377.70378 664.0536 378.7036 664.0357M374.7221 665.107 373.7223 665.1249 373.7044 664.125 374.70423 664.1071M370.72276 665.17849 369.72294 665.1963 369.70506 664.1964 370.70487 664.1786M366.7234 665.2499 366.71894 665.24996 366.70106 664.25009 366.7055 664.25"/>
<path transform="matrix(0,.65767619,-.65767619,0,713.6597,-15.483532)" d="M390.22 640.63H398.47L418.47 660.63V665.63H410.22L390.22 645.63V640.63Z" fill="#bac8d3"/>
<path transform="matrix(0,.65767619,-.65767619,0,713.6597,-15.483532)" stroke-width="1" stroke-linecap="butt" stroke-miterlimit="10" stroke-linejoin="miter" fill="none" stroke="#23445d" d="M390.22 640.63H398.47L418.47 660.63V665.63H410.22L390.22 645.63V640.63Z"/>
<path transform="matrix(0,.65767619,-.65767619,0,713.6597,-15.483532)" d="M390.22 640.63H398.47L418.47 660.63H410.22L390.22 640.63Z" fill-opacity=".05"/>
<path transform="matrix(0,.65767619,-.65767619,0,713.6597,-15.483532)" d="M390.22 640.63 410.22 660.63V665.63L390.22 645.63V640.63Z" fill-opacity=".1"/>
<path transform="matrix(0,.65767619,-.65767619,0,713.6597,-15.483532)" stroke-width="1" stroke-linecap="butt" stroke-miterlimit="10" stroke-linejoin="miter" fill="none" stroke="#23445d" d="M410.22 665.63V660.63L390.22 640.63M410.22 660.63H418.47"/>
<path transform="matrix(.65767619,0,0,.65767619,18.186934,-179.10678)" d="M437.53 621.25H517.03V688.75H437.53Z" fill="#fff2cc"/>
<path transform="matrix(.65767619,0,0,.65767619,18.186934,-179.10678)" stroke-width="1" stroke-linecap="butt" stroke-miterlimit="4" stroke-linejoin="miter" fill="none" stroke="#000000" d="M437.53 621.25H517.03V688.75H437.53Z"/>
<path transform="matrix(0,.65767619,-.65767619,0,750.90396,-52.727739)" d="M446.84 640.63H455.09L475.09 660.63V665.63H466.84L446.84 645.63V640.63Z" fill="#bac8d3"/>
<path transform="matrix(0,.65767619,-.65767619,0,750.90396,-52.727739)" stroke-width="1" stroke-linecap="butt" stroke-miterlimit="10" stroke-linejoin="miter" fill="none" stroke="#23445d" d="M446.84 640.63H455.09L475.09 660.63V665.63H466.84L446.84 645.63V640.63Z"/>
<path transform="matrix(0,.65767619,-.65767619,0,750.90396,-52.727739)" d="M446.84 640.63H455.09L475.09 660.63H466.84L446.84 640.63Z" fill-opacity=".05"/>
<path transform="matrix(0,.65767619,-.65767619,0,750.90396,-52.727739)" d="M446.84 640.63 466.84 660.63V665.63L446.84 645.63V640.63Z" fill-opacity=".1"/>
<path transform="matrix(0,.65767619,-.65767619,0,750.90396,-52.727739)" stroke-width="1" stroke-linecap="butt" stroke-miterlimit="10" stroke-linejoin="miter" fill="none" stroke="#23445d" d="M466.84 665.63V660.63L446.84 640.63M466.84 660.63H475.09"/>
<text xml:space="preserve" transform="matrix(.65767619 0 0 .65767619 17.858098 -179.43563)" font-size="12" font-family="Liberation Serif"><tspan y="683" x="440.15626 448.16026 453.48826 458.15626 461.49226 467.49226 473.49226 478.82026 482.15626 485.15626 493.16026 496.49626 502.49626 507.82426">Residual Block</tspan></text>
<text xml:space="preserve" transform="matrix(.65767619 0 0 .65767619 17.858098 -179.43563)" font-size="8" font-family="Liberation Serif" font-weight="bold"><tspan y="633" x="457.5 461.5 465.5 469.5 473.5 475.5 479.5 481.5 485.5 487.5 491.5 493.5">2048 x 7 x 7</tspan></text>
<path transform="matrix(.65767619,0,0,.65767619,18.186934,-179.10678)" d="M483.96894 664.74996 482.9691 664.7678 482.9512 663.76797 483.95106 663.75009M479.96958 664.82138 478.96974 664.83926 478.95185 663.83938 479.9517 663.8215M475.9702 664.89279 474.97038 664.91067 474.95249 663.91079 475.95234 663.8929M471.97087 664.9642 470.971 664.98208 470.95314 663.9822 471.95298 663.9643M467.9715 665.0356 466.97166 665.05349 466.95378 664.0536 467.9536 664.0357M463.9721 665.107 462.9723 665.1249 462.9544 664.125 463.95423 664.1071M459.97276 665.17849 458.97294 665.1963 458.95506 664.1964 459.95487 664.1786M455.9734 665.2499 455.96894 665.24996 455.95106 664.25009 455.9555 664.25"/>
<path transform="matrix(0,.65767619,-.65767619,0,772.35739,-74.18113)" d="M479.47 640.63H487.72L507.72 660.63V665.63H499.47L479.47 645.63V640.63Z" fill="#bac8d3"/>
<path transform="matrix(0,.65767619,-.65767619,0,772.35739,-74.18113)" stroke-width="1" stroke-linecap="butt" stroke-miterlimit="10" stroke-linejoin="miter" fill="none" stroke="#23445d" d="M479.47 640.63H487.72L507.72 660.63V665.63H499.47L479.47 645.63V640.63Z"/>
<path transform="matrix(0,.65767619,-.65767619,0,772.35739,-74.18113)" d="M479.47 640.63H487.72L507.72 660.63H499.47L479.47 640.63Z" fill-opacity=".05"/>
<path transform="matrix(0,.65767619,-.65767619,0,772.35739,-74.18113)" d="M479.47 640.63 499.47 660.63V665.63L479.47 645.63V640.63Z" fill-opacity=".1"/>
<path transform="matrix(0,.65767619,-.65767619,0,772.35739,-74.18113)" stroke-width="1" stroke-linecap="butt" stroke-miterlimit="10" stroke-linejoin="miter" fill="none" stroke="#23445d" d="M499.47 665.63V660.63L479.47 640.63M499.47 660.63H507.72"/>
<path transform="matrix(.65767619,0,0,.65767619,18.186934,-179.10678)" stroke-width="1" stroke-linecap="butt" stroke-miterlimit="10" stroke-linejoin="miter" fill="none" stroke="#000000" d="M338.03 655H346.04"/>
<path transform="matrix(.65767619,0,0,.65767619,18.186934,-179.10678)" stroke-width="1" stroke-linecap="butt" stroke-miterlimit="10" stroke-linejoin="miter" fill="none" stroke="#000000" d="M340.16 658.5 347.16 655 340.16 651.5"/>
<path transform="matrix(.65767619,0,0,.65767619,18.186934,-179.10678)" stroke-width="1" stroke-linecap="butt" stroke-miterlimit="10" stroke-linejoin="miter" fill="none" stroke="#000000" d="M427.78 655H435.29"/>
<path transform="matrix(.65767619,0,0,.65767619,18.186934,-179.10678)" stroke-width="1" stroke-linecap="butt" stroke-miterlimit="10" stroke-linejoin="miter" fill="none" stroke="#000000" d="M429.41 658.5 436.41 655 429.41 651.5"/>
<path transform="matrix(.65767619,0,0,.65767619,18.186934,-179.10678)" d="M535.32 563.2H602V609.44H535.32Z" fill="#fff2cc"/>
<path transform="matrix(.65767619,0,0,.65767619,18.186934,-179.10678)" stroke-width="1" stroke-linecap="butt" stroke-miterlimit="4" stroke-linejoin="miter" fill="none" stroke="#000000" d="M535.32 563.2H602V609.44H535.32Z"/>
<text xml:space="preserve" transform="matrix(.65767619 0 0 .65767619 17.858098 -179.43563)" font-size="12" font-family="Liberation Sans"><tspan y="576" x="555.8281 563.1601 569.8321 572.4961 575.1601">Fully</tspan></text>
<text xml:space="preserve" transform="matrix(.65767619 0 0 .65767619 17.858098 -179.43563)" font-size="12" font-family="Liberation Sans"><tspan y="590" x="539.46878 548.13278 554.80477 561.47677 568.14877 574.82077 580.82077 584.15676 590.82876">Connected</tspan></text>
<text xml:space="preserve" transform="matrix(.65767619 0 0 .65767619 17.858098 -179.43563)" font-size="12" font-family="Liberation Sans"><tspan y="605" x="548.4844 555.1564 561.82839 567.82839 574.50039 578.49636 581.83236">Layer 1</tspan></text>
<path transform="matrix(.65767619,0,0,.65767619,18.186934,-179.10678)" d="M535.32 611.32H602V657.56H535.32Z" fill="#fff2cc"/>
<path transform="matrix(.65767619,0,0,.65767619,18.186934,-179.10678)" stroke-width="1" stroke-linecap="butt" stroke-miterlimit="4" stroke-linejoin="miter" fill="none" stroke="#000000" d="M535.32 611.32H602V657.56H535.32Z"/>
<text xml:space="preserve" transform="matrix(.65767619 0 0 .65767619 17.858098 -179.43563)" font-size="12" font-family="Liberation Sans"><tspan y="624" x="555.8281 563.1601 569.8321 572.4961 575.1601">Fully</tspan></text>
<text xml:space="preserve" transform="matrix(.65767619 0 0 .65767619 17.858098 -179.43563)" font-size="12" font-family="Liberation Sans"><tspan y="638" x="539.46878 548.13278 554.80477 561.47677 568.14877 574.82077 580.82077 584.15676 590.82876">Connected</tspan></text>
<text xml:space="preserve" transform="matrix(.65767619 0 0 .65767619 17.858098 -179.43563)" font-size="12" font-family="Liberation Sans"><tspan y="653" x="548.4844 555.1564 561.82839 567.82839 574.50039 578.49636 581.83236">Layer 2</tspan></text>
<path transform="matrix(.65767619,0,0,.65767619,18.186934,-179.10678)" d="M535.32 659.45H602V705.69H535.32Z" fill="#fff2cc"/>
<path transform="matrix(.65767619,0,0,.65767619,18.186934,-179.10678)" stroke-width="1" stroke-linecap="butt" stroke-miterlimit="4" stroke-linejoin="miter" fill="none" stroke="#000000" d="M535.32 659.45H602V705.69H535.32Z"/>
<text xml:space="preserve" transform="matrix(.65767619 0 0 .65767619 17.858098 -179.43563)" font-size="12" font-family="Liberation Sans"><tspan y="673" x="555.8281 563.1601 569.8321 572.4961 575.1601">Fully</tspan></text>
<text xml:space="preserve" transform="matrix(.65767619 0 0 .65767619 17.858098 -179.43563)" font-size="12" font-family="Liberation Sans"><tspan y="687" x="539.46878 548.13278 554.80477 561.47677 568.14877 574.82077 580.82077 584.15676 590.82876">Connected</tspan></text>
<text xml:space="preserve" transform="matrix(.65767619 0 0 .65767619 17.858098 -179.43563)" font-size="12" font-family="Liberation Sans"><tspan y="702" x="548.4844 555.1564 561.82839 567.82839 574.50039 578.49636 581.83236">Layer 3</tspan></text>
<path transform="matrix(.65767619,0,0,.65767619,18.186934,-179.10678)" d="M535.28 708.06H601.96V754.3H535.28Z" fill="#fff2cc"/>
<path transform="matrix(.65767619,0,0,.65767619,18.186934,-179.10678)" stroke-width="1" stroke-linecap="butt" stroke-miterlimit="4" stroke-linejoin="miter" fill="none" stroke="#000000" d="M535.28 708.06H601.96V754.3H535.28Z"/>
<text xml:space="preserve" transform="matrix(.65767619 0 0 .65767619 17.858098 -179.43563)" font-size="12" font-family="Liberation Sans"><tspan y="721" x="555.8281 563.1601 569.8321 572.4961 575.1601">Fully</tspan></text>
<text xml:space="preserve" transform="matrix(.65767619 0 0 .65767619 17.858098 -179.43563)" font-size="12" font-family="Liberation Sans"><tspan y="735" x="539.46878 548.13278 554.80477 561.47677 568.14877 574.82077 580.82077 584.15676 590.82876">Connected</tspan></text>
<text xml:space="preserve" transform="matrix(.65767619 0 0 .65767619 17.858098 -179.43563)" font-size="12" font-family="Liberation Sans"><tspan y="750" x="548.4844 555.1564 561.82839 567.82839 574.50039 578.49636 581.83236">Layer 4</tspan></text>
<path transform="matrix(.65767619,0,0,.65767619,18.186934,-179.10678)" stroke-width="1" stroke-linecap="butt" stroke-miterlimit="10" stroke-linejoin="miter" fill="none" stroke="#000000" d="M516.95 630.09 534.45 588.38"/>
<path transform="matrix(.65767619,0,0,.65767619,18.186934,-179.10678)" stroke-width="1" stroke-linecap="butt" stroke-miterlimit="10" stroke-linejoin="miter" fill="none" stroke="#000000" d="M535.41 595.16 534.89 587.35 528.95 592.45"/>
<path transform="matrix(.65767619,0,0,.65767619,18.186934,-179.10678)" stroke-width="1" stroke-linecap="butt" stroke-miterlimit="10" stroke-linejoin="miter" fill="none" stroke="#000000" d="M517.03 638.13 533.13 634.88"/>
<path transform="matrix(.65767619,0,0,.65767619,18.186934,-179.10678)" stroke-width="1" stroke-linecap="butt" stroke-miterlimit="10" stroke-linejoin="miter" fill="none" stroke="#000000" d="M528.05 639.47 534.22 634.66 526.67 632.61"/>
<path transform="matrix(.65767619,0,0,.65767619,18.186934,-179.10678)" stroke-width="1" stroke-linecap="butt" stroke-miterlimit="10" stroke-linejoin="miter" fill="none" stroke="#000000" d="M517.03 671.88 533.39 681.44"/>
<path transform="matrix(.65767619,0,0,.65767619,18.186934,-179.10678)" stroke-width="1" stroke-linecap="butt" stroke-miterlimit="10" stroke-linejoin="miter" fill="none" stroke="#000000" d="M526.55 681.49 534.35 682.01 530.08 675.45"/>
<path transform="matrix(.65767619,0,0,.65767619,18.186934,-179.10678)" stroke-width="1" stroke-linecap="butt" stroke-miterlimit="10" stroke-linejoin="miter" fill="none" stroke="#000000" d="M517.27 680.51 534.53 729.07"/>
<path transform="matrix(.65767619,0,0,.65767619,18.186934,-179.10678)" stroke-width="1" stroke-linecap="butt" stroke-miterlimit="10" stroke-linejoin="miter" fill="none" stroke="#000000" d="M529.26 724.7 534.91 730.13 535.86 722.36"/>
</g>
</svg>
